# xmcd
#
# Track frame offsets: 
#        150
#        5565
#        20804
#        39067
#        59449
#        65235
#        86241
#        103326
#        119848
#        135858
#        155046
#        171803
#        187951
#        206103
#        226470
#
# Disc length: 3231 seconds
#
# Revision: 0
# Processed by: cddbd v1.5.2PL0 Copyright (c) Steve Scherf et al.
# Submitted via: ExactAudioCopyFreeDBPlugin 1.0
#
DISCID=da0c9d0f
DTITLE=Ginuwine - A Man's Thoughts
DYEAR=2009
DGENRE=R&B
TTITLE0=Interlude
TTITLE1=Show Off
TTITLE2=Trouble
TTITLE3=Last Chance
TTITLE4=Interlude
TTITLE5=One Time For Love
TTITLE6=Open The Door
TTITLE7=Get Involved
TTITLE8=Orchestra
TTITLE9=Touch Me
TTITLE10=Lying To Each Other
TTITLE11=Even When I'm Mad
TTITLE12=Bridge To Love
TTITLE13=Used To Be The One
TTITLE14=Show Me The Way
EXTD=
EXTT0=
EXTT1=
EXTT2=
EXTT3=
EXTT4=
EXTT5=
EXTT6=
EXTT7=
EXTT8=
EXTT9=
EXTT10=
EXTT11=
EXTT12=
EXTT13=
EXTT14=
PLAYORDER=
